# xmcd CD database file
#
# Track frame offsets:
#	150
#	13532
#	24702
#	33820
#	44137
#	55322
#	63797
#	80072
#	94505
#	109485
#	119222
#	132285
#	148345
#	160920
#	172590
#	184572
#	196560
#	208567
#	219985
#	233480
#
# Disc length: 3281 seconds
#
# Revision: 1
# Processed by: cddbd v1.5.2PL0 Copyright (c) Steve Scherf et al.
# Submitted via: CDex 1.51
#
DISCID=120ccf14
DTITLE=Connie Francis - Touch Me, Thrill Me, Kiss Me
DYEAR=1997
DGENRE=Oldies
TTITLE0=Hallelujah I Just Love Him So
TTITLE1=Rock A Bye Your Baby With A Dixie Melody
TTITLE2=The Song Is Ended
TTITLE3=Come Rain Or Come Shine
TTITLE4=All By Myself
TTITLE5=There Will Never Be Another You
TTITLE6=How Did He Look
TTITLE7=Time After Time
TTITLE8=That's All
TTITLE9=Hold Me, Thrill Me, Kiss Me
TTITLE10=Blame It On My Youth
TTITLE11=Melancholy Serenade
TTITLE12=Everybody's Somebody's Fool
TTITLE13=My Happiness
TTITLE14=Among My Souvenirs
TTITLE15=Breaking In A Brand New Broken Heart
TTITLE16=My Heart Has A Heart Of Its Own
TTITLE17=I'm Gonna Be Warm This Winter
TTITLE18=Second Hand Love
TTITLE19=Follow The Boys
EXTD=YEAR: 1997
EXTT0=
EXTT1=
EXTT2=
EXTT3=
EXTT4=
EXTT5=
EXTT6=
EXTT7=
EXTT8=
EXTT9=
EXTT10=
EXTT11=
EXTT12=
EXTT13=
EXTT14=
EXTT15=
EXTT16=
EXTT17=
EXTT18=
EXTT19=
PLAYORDER=
